<?xml version="1.0" standalone="no"?>
<!DOCTYPE svg PUBLIC "-//W3C//DTD SVG 20010904//EN"
 "http://www.w3.org/TR/2001/REC-SVG-20010904/DTD/svg10.dtd">
<svg version="1.0" xmlns="http://www.w3.org/2000/svg"
 width="500.000000pt" height="131.000000pt" viewBox="0 0 500.000000 131.000000"
 preserveAspectRatio="xMidYMid meet">

<g transform="translate(0.000000,131.000000) scale(0.100000,-0.100000)"
fill="#000000" stroke="none">
<path d="M1410 1196 c-11 -29 -40 -40 -84 -32 -43 8 -74 -21 -55 -52 17 -27
-5 -80 -37 -88 -34 -9 -34 -61 -1 -73 33 -13 55 -66 38 -93 -11 -18 -10 -24 6
-40 15 -14 25 -17 44 -10 34 13 77 -5 95 -39 19 -37 49 -38 66 -2 18 39 59 57
92 42 38 -18 59 3 51 52 -8 45 7 76 41 89 17 7 24 17 24 35 0 18 -7 28 -24 35
-14 5 -30 18 -35 29 -14 25 -14 68 0 76 7 5 4 14 -7 26 -13 15 -25 17 -55 13
-42 -7 -89 15 -89 41 0 10 -10 15 -30 15 -23 0 -33 -6 -40 -24z m82 -163 c22
-20 23 -70 1 -95 -36 -40 -113 -8 -113 47 0 54 71 85 112 48z"/>
<path d="M912 1048 c-5 -7 -13 -23 -16 -36 -14 -43 -94 -66 -136 -40 -17 11
-24 9 -47 -15 -24 -23 -26 -30 -15 -47 28 -46 3 -121 -48 -138 -27 -10 -30
-15 -30 -51 0 -34 4 -40 29 -49 31 -11 61 -56 61 -91 0 -11 -5 -32 -12 -46
-10 -23 -9 -29 13 -51 24 -23 27 -24 59 -11 54 23 125 -7 132 -57 2 -17 11
-22 43 -24 37 -2 41 1 55 30 9 20 30 40 52 51 35 17 40 17 70 3 31 -16 32 -15
59 10 27 26 27 27 12 60 -15 31 -15 36 2 74 13 28 27 43 51 52 31 11 34 16 34
50 0 28 -5 40 -17 44 -37 11 -49 21 -67 58 -18 36 -18 40 -2 74 17 35 17 36
-8 60 -22 23 -28 24 -51 14 -60 -27 -116 -6 -141 54 -12 27 -20 34 -43 34 -16
0 -33 -6 -39 -12z m84 -253 c34 -23 49 -69 34 -105 -14 -33 -55 -60 -90 -60
-33 0 -80 53 -80 90 0 66 84 112 136 75z"/>
<path d="M2240 755 l0 -275 50 0 50 0 0 275 0 275 -50 0 -50 0 0 -275z"/>
<path d="M2370 981 c0 -49 1 -50 33 -53 l32 -3 3 -222 2 -223 50 0 50 0 2 223
3 222 33 3 c31 3 32 4 32 53 l0 49 -120 0 -120 0 0 -49z"/>
<path d="M2641 1008 c0 -13 6 -57 12 -98 11 -70 14 -75 38 -78 25 -3 27 -1 33
60 4 35 10 80 13 101 l6 37 -52 0 c-46 0 -51 -2 -50 -22z"/>
<path d="M2780 755 l0 -275 110 0 110 0 0 49 0 50 -52 3 -53 3 0 65 0 65 48 3
47 3 0 45 0 44 -50 0 -50 0 0 60 0 60 55 0 55 0 0 50 0 50 -110 0 -110 0 0
-275z"/>
<path d="M3050 755 l0 -275 45 0 45 0 0 192 c0 105 2 189 4 187 3 -2 19 -89
37 -192 l32 -187 47 0 47 0 30 183 31 182 1 -182 1 -183 50 0 50 0 0 275 0
276 -82 -3 -83 -3 -20 -152 c-12 -84 -23 -155 -26 -158 -3 -3 -14 54 -23 127
-28 210 -15 188 -107 188 l-79 0 0 -275z"/>
<path d="M1455 705 c-3 -8 -7 -22 -10 -30 -6 -19 -64 -55 -90 -55 -11 0 -30 7
-42 15 -19 13 -23 13 -47 -6 -28 -22 -32 -39 -15 -68 26 -41 -15 -123 -66
-133 -16 -3 -20 -11 -20 -43 0 -32 4 -40 20 -43 51 -10 92 -92 66 -133 -17
-29 -13 -46 15 -68 24 -19 28 -19 47 -6 12 8 31 15 43 15 31 0 87 -42 94 -70
5 -21 13 -25 47 -28 38 -3 41 -1 46 27 4 20 18 38 39 51 39 24 60 25 97 5 27
-13 30 -13 55 14 27 28 27 30 10 55 -14 23 -15 33 -5 66 12 41 43 70 73 70 15
0 18 9 18 45 0 36 -3 45 -18 45 -30 0 -61 29 -73 70 -10 33 -9 43 5 66 17 25
17 27 -10 55 -25 27 -28 27 -55 14 -37 -20 -58 -19 -97 5 -21 13 -35 31 -39
50 -5 27 -9 30 -45 30 -26 0 -40 -5 -43 -15z m104 -259 c53 -56 15 -146 -61
-146 -52 0 -88 35 -88 85 0 77 97 116 149 61z"/>
</g>
</svg>
